<svg width="16" height="16" viewBox="0 0 16 16" fill="none" xmlns="http://www.w3.org/2000/svg">
<path d="M10.6667 5.3335C11.7275 5.3335 12.7449 5.75492 13.4951 6.50507C14.2452 7.25521 14.6667 8.27263 14.6667 9.3335V14.0002H12V9.3335C12 8.97987 11.8595 8.64074 11.6095 8.39069C11.3594 8.14064 11.0203 8.00016 10.6667 8.00016C10.313 8.00016 9.9739 8.14064 9.72385 8.39069C9.4738 8.64074 9.33332 8.97987 9.33332 9.3335V14.0002H6.66666V9.3335C6.66666 8.27263 7.08808 7.25521 7.83823 6.50507C8.58838 5.75492 9.60579 5.3335 10.6667 5.3335Z" stroke="#F8FAFC" stroke-width="1.33333" stroke-linecap="round" stroke-linejoin="round"/>
<path d="M4.00001 6H1.33334V14H4.00001V6Z" stroke="#F8FAFC" stroke-width="1.33333" stroke-linecap="round" stroke-linejoin="round"/>
<path d="M2.66668 4.00016C3.40306 4.00016 4.00001 3.40321 4.00001 2.66683C4.00001 1.93045 3.40306 1.3335 2.66668 1.3335C1.9303 1.3335 1.33334 1.93045 1.33334 2.66683C1.33334 3.40321 1.9303 4.00016 2.66668 4.00016Z" stroke="#F8FAFC" stroke-width="1.33333" stroke-linecap="round" stroke-linejoin="round"/>
</svg>
